<?xml version="1.0" encoding="utf-8"?>
<!-- Generator: Adobe Illustrator 24.0.0, SVG Export Plug-In . SVG Version: 6.00 Build 0)  -->
<svg version="1.1" id="Layer_1" xmlns="http://www.w3.org/2000/svg" xmlns:xlink="http://www.w3.org/1999/xlink" x="0px" y="0px"
	 viewBox="0 0 1000 1000" style="enable-background:new 0 0 1000 1000;" xml:space="preserve">
<style type="text/css">
	.st0{fill:#FFFFFF;}
	.st1{fill:#011528;}
</style>
<g>
	<circle class="st0" cx="379.83" cy="379.83" r="280.69"/>
	<g>
		<path class="st1" d="M381.43,661h-2.86c-8.76-126.93-16.83-190.68-52.87-226.71c-36.03-36.03-99.77-44.1-226.71-52.87v-2.86
			c126.93-8.76,190.68-16.83,226.71-52.87s44.1-99.77,52.87-226.71h2.86c8.76,126.93,16.83,190.68,52.87,226.71
			c36.03,36.03,99.77,44.1,226.71,52.87v2.86c-126.93,8.76-190.68,16.83-226.71,52.87C398.26,470.32,390.19,534.07,381.43,661z
			 M119.37,379.83c114.27,8.35,173.52,17.53,208.22,52.23c34.7,34.7,43.88,93.95,52.23,208.22
			c8.35-114.27,17.53-173.52,52.23-208.22c34.7-34.7,93.95-43.88,208.22-52.23c-114.27-8.35-173.52-17.53-208.22-52.23
			c-34.7-34.7-43.88-93.95-52.23-208.22C371.48,233.65,362.3,292.9,327.6,327.6S233.65,371.48,119.37,379.83z"/>
	</g>
</g>
<g>
	<circle class="st0" cx="663.09" cy="663.09" r="219.26"/>
	<g>
		<path class="st1" d="M664.93,883h-2.86c-1.89-107.34-4-160.13-30.97-187.1c-26.97-26.97-79.76-29.07-187.1-30.97v-2.86
			c107.34-1.89,160.13-4,187.1-30.97c26.97-26.97,29.07-79.76,30.97-187.1h2.86c1.89,107.34,4,160.13,30.97,187.1
			c26.97,26.97,79.76,29.07,187.1,30.97v2.86c-107.34,1.89-160.13,4-187.1,30.97C668.93,722.87,666.82,775.66,664.93,883z
			 M506.64,663.09c64.5,2.25,103.67,7.9,126.11,30.34s28.09,61.61,30.34,126.11c2.25-64.5,7.9-103.67,30.34-126.11
			s61.61-28.09,126.11-30.34c-64.5-2.25-103.67-7.9-126.11-30.34s-28.09-61.61-30.34-126.11c-2.25,64.5-7.9,103.67-30.34,126.11
			S571.14,660.84,506.64,663.09z"/>
	</g>
</g>
</svg>
